<svg id="레이어_1" data-name="레이어 1" xmlns="http://www.w3.org/2000/svg" viewBox="0 0 2400 3600"><path d="M787.82,786.28Q1064.73,843.85,1341.55,902T1895,1018.85q156.07,33.14,312.12,66.44v-400c-53,77.64-131,131.91-214.44,172.88-90.89,44.67-188,76.09-283.12,110.19L1023,1214.42l-386.5,138.51c-2.52.9-1.5,66.42-1.42,58.58-.5,47.13-.61,94.28-.58,141.42s0,94.28.58,141.42c.08,6.77-2.45,57.2,1.42,58.58Q883.92,1841.06,1126,1943.3q241.95,102.26,477.72,218.38,65.1,32.07,129.69,65.19c32.2,16.51,70,36.12,73.85,76.41l-.54-7.14.13,2.79-1.19-293.8,1-86.4.53-7.14c-4.91,47.15-58.62,73.88-98.35,87.08-25.54,8.49-52.45,13.42-78.71,19.16q-44.1,9.63-88.41,18.23c-115.2,22.49-231.15,40.83-346.84,60.59-227.9,38.93-458.68,83-670.55,178.92C421.43,2322.2,318.78,2381,235.13,2457.76c-41.61,38.18-78.81,85.55-89.69,142.24-3.7,19.24-4,38.87-4.36,58.39-1.15,58.7-1,117.45-1,176.16,0,65.39-.63,130.95,1.49,196.32.89,27.54,5,54.61,18.35,79.1,27,49.66,81.21,67.89,134.21,74.17,67.25,8,136,8.08,203.62,11q214.5,9.27,429.16,14.06,431.72,9.66,863.57,1.24,53.05-1,106.12-2.35c3.07-.07,2-185,2-200,0-14.55-.52-200-2-200q-375,9.21-750.19,4.85-373.89-4.38-747.46-22.3c-57.27-2.75-120.27-.37-174-23.28-49.7-21.17-78-66-82.35-119l.53,7.14c-.13-1.72-.22-3.44-.29-5.17q-1.94-45,1,83.27l-.72,273.64c-.36,26.05-.29,12,.11,6.29l-.53,7.14c9.27-104,99.26-175.06,178.74-230.52,81.62-56.94,170.41-103,262.67-140,190-76.39,392.31-115.82,593.32-150.45,102.11-17.58,204.44-33.84,306.34-52.6C1534,2437.81,1584.09,2428,1634,2417c45-9.89,91.27-18.51,130.16-44.83,15.77-10.67,30.86-24.44,38.48-42.26,5.21-12.19,5.21-25.21,5.52-38.28,1-44.11,1-88.25,1.17-132.37q.26-77.05-.2-154.12c-.2-30.58.42-61.36-1.19-91.91-1.28-24.1-9.16-42.61-28-58.25-19.22-15.94-42.86-26.29-64.94-37.54q-161.15-82.15-325.47-157.83-329.62-151.8-670.68-276.92-41.1-15.08-82.34-29.75v400l686.61-246.06,343.31-123c99-35.47,199.9-67.94,295.81-111.3,94.71-42.81,185.41-100,244.95-187.25q.81-8.6.77-17.23.54-20.67.64-41.35c.5-47.14.61-94.29.59-141.42s0-94.29-.59-141.42c-.07-6.22,1.43-58-1.41-58.58q-276.61-59.06-553.36-117.52T1100.21,451.41Q944,418.74,787.82,386.28c-.22,0-1.52,67.85-1.42,58.57-.5,47.14-.61,94.29-.58,141.43s0,94.28.58,141.42c.07,6.2-1.39,58,1.42,58.58Z"/></svg>