<svg id="레이어_1" data-name="레이어 1" xmlns="http://www.w3.org/2000/svg" viewBox="0 0 2400 3600"><path d="M1352.61,2850.32c-93.32,41.7-197.49,24.7-287.44-17.49-95.49-44.78-175.45-115.78-245.31-193.73-144.71-161.48-243.77-357.85-329.71-555.25-53.76-123.47-100.74-250.41-110.91-385.77l.53,7.15c-1-13.73-1.54-27.46-2.06-41.21q-.18-6.26.06,2.8,1.88,72.63.28,145.29,1,75.42,0,150.83-.26,17.37-.08,8.34c.18-10.26-.53,15.83-.11,5.57.16-4,.26-8.11.41-12.16,1-27.63,2.8-55.22,4.85-82.79l-.53,7.14c5.46-72.33,12.56-144.51,16.43-217,3.52-66,5.57-132.15,10.36-198.12l-.53,7.15c7.08-95.11,19.91-190.86,53.05-280.79A596.35,596.35,0,0,1,596.78,987.87c114.81-116.64,272-188.07,432.49-213.73,97.31-15.55,199.42-16.59,291.61,22.3,82.61,34.84,154.88,93.36,220.49,153.49,123.58,113.26,225,250,300.23,399.67a1448.41,1448.41,0,0,1,144.29,479.67q3.57,30.29,5.82,60.7l-.53-7.14q1.52,20.91,2.46,41.84c.27,6.35.47,12.7.7,19,.53,14.92-.43-19.86-.11-4.93l.06,3.81q-1.12-75.86-.3-151.73-.84-70,.17-139.91.27-19.65.09-8c-.24,12.78.47-16.23.18-6.83-.22,7-.44,14-.74,21-.6,14-1.45,27.92-2.47,41.87l.54-7.15c-14.48,190.31-69.94,376.23-158.47,545.12a1495.68,1495.68,0,0,1-354.35,443.59,1424.08,1424.08,0,0,1-265.63,178.92c-3.1,1.61-1.49,65.37-1.42,58.58-.5,47.13-.6,94.28-.58,141.42s0,94.28.58,141.42l.41,31.27a267.52,267.52,0,0,0,1,27.31c128.69-66.9,246.54-153.77,349.41-256a1499.2,1499.2,0,0,0,260-346.8c68.85-126.6,119.26-263.37,147.24-404.8a1382.71,1382.71,0,0,0,25.28-222.4c2-59.86,2-119.81,2.13-179.7.22-87.33.64-174.74-1.26-262.06-1-43.43-3-86.74-7.18-130a1443.59,1443.59,0,0,0-110.36-428.59c-58.06-135.34-136.74-262-233.61-373a1320.24,1320.24,0,0,0-159.83-154.83c-63.54-51.84-133.24-99.92-213.21-121.94-83.45-23-173-17.75-257.4-2.74A842,842,0,0,0,805.8,442.4C676.42,502.88,561.72,599.3,494.51,726.77c-80,151.77-85.88,328.23-93.48,495.86-1.93,42.5-4,85-7.08,127.41l.53-7.14c-5.73,77.06-13.94,154-17.07,231.21-1.29,31.72-1.7,63.47-2,95.21-1.22,114.39-1.46,228.88.43,343.26.71,43.12,2.33,86.21,7.72,129,17.88,142,75.82,275.59,134.44,404.86,53.92,118.9,113.64,235.71,186.8,344.05C776.68,2997,862.7,3100,967.8,3175.31c109,78,254.62,133.18,384.81,75,2.84-1.27,1.49-65.88,1.42-58.58.5-47.13.6-94.28.58-141.42s0-94.28-.58-141.42l-.41-31.27a267.52,267.52,0,0,0-1-27.31Z"/><path d="M190,1921H670c1.09,0,1.51-67.78,1.41-58.58.51-47.13.61-94.28.59-141.42s0-94.28-.59-141.42c-.06-5.78-.25-58.58-1.41-58.58H190c-1.09,0-1.51,67.78-1.41,58.58-.51,47.13-.61,94.28-.59,141.42s0,94.28.59,141.42c.06,5.78.25,58.58,1.41,58.58Z"/><path d="M1757.9,1951.39l158.51-9.46,157.7-9.42,89-5.32q.81-8.6.77-17.22.54-20.67.64-41.36c.5-47.13.61-94.28.59-141.42s-.05-94.28-.59-141.42c-.07-5.75-.74-58.62-1.41-58.58l-158.51,9.47-157.7,9.42-89,5.31q-.81,8.59-.77,17.23-.54,20.67-.64,41.35c-.5,47.14-.61,94.29-.59,141.42s0,94.29.59,141.42c.07,5.75.74,58.62,1.41,58.58Z"/></svg>