<svg id="레이어_1" data-name="레이어 1" xmlns="http://www.w3.org/2000/svg" viewBox="0 0 2400 3600"><defs><style>.cls-1{fill:blue;}</style></defs><path class="cls-1" d="M1202.15,463.27c-61.68,55-93.9,132.53-133.91,203-19.88,35-42.13,69.14-70.86,97.59-34.32,34-76.61,58.1-114,88.38-77,62.42-131.2,150.23-188.56,229.8L503.58,1347.34,408.65,1479q-24.07,33.42-48.17,66.83C346,1566,332.69,1585.23,331,1610.68c-2.11,31.72-1.3,64.19-1.48,95.91q-.43,79.14-.19,158.29c.11,46.39-1,93.32,1.39,139.68.41,7.93,1.09,15.78,3.35,23.41,6.51,22,22,41.19,36.1,58.78,29.26,36.48,63.58,68.45,98.16,99.78,35.86,32.51,71.56,65,104.86,100.15S638,2359,668.06,2397.22c60.73,77.24,115.51,158.92,169.46,241q178.82,271.91,356.91,544.28c1.57,2.4,8,15.69,10.64,16.24,1.94.39,11-8.9,12.91-10.43q13.68-11.13,27.25-22.38,27.13-22.53,53.8-45.61,52.53-45.48,103.15-93.12,102-95.94,195.82-200.07a3397.43,3397.43,0,0,0,337.94-443.23q38-59.4,73.51-120.37c23.11-39.67,53.41-82.36,59.51-128.85a260,260,0,0,0,1.7-27.9c.87-36.67,1-73.36,1.13-110q.42-99.12-.26-198.24c-.2-26.49.33-53.29-1.38-79.76-1.57-24.37-8.92-46.52-20.88-67.75-24.32-43.17-58-81.75-87.54-121.42q-185.45-249.37-359.15-507.22T1267.4,499q-39.62-65.16-78.49-130.75a170.78,170.78,0,0,0-.77,17.22q-.54,20.67-.64,41.36c-.51,47.13-.61,94.28-.59,141.42s0,94.28.59,141.42l.4,31.27a270.41,270.41,0,0,0,1,27.31q162,273.3,336.8,538.75,174.13,264.35,360.68,520.25,52.39,71.9,105.75,143.07c31.71,42.3,72.13,86.37,77.48,141.29l-.53-7.14-.14-12.07V1747l.17-11.55.53-7.14c-4.37,46.11-32.36,87.11-55,126.26q-33.23,57.46-68.7,113.59-71.49,113.1-151.76,220.3a3404.2,3404.2,0,0,1-353,401.49q-96,93.21-199.13,178.64-12.78,10.57-25.67,21c-2,1.62-9.33,9.53-11.3,9.13-3.42-.7-11.17-17-13.31-20.3l-42.58-64.95L1064,2583.57,892.34,2321.75c-52.59-80.21-104.57-160.9-160.34-239-54.39-76.14-112.63-149.82-178.48-216.44-63.43-64.17-137.79-118.56-192.32-191.13-13.45-17.89-26.41-36.76-29.65-59.38l.53,7.15-.3-4.14,1.39,139.69v-4.17l-1.4,246,.29-4-.54,7.15c3.24-23,17.18-41.34,30.38-59.66L408.65,1879l92.1-127.74,185.61-257.47c29.92-41.51,59.42-83.36,90-124.37,27.84-37.32,57.45-73.69,92.33-104.71,35.17-31.28,76.23-54.88,111.92-85.48,30.58-26.23,54.81-58.31,75.66-92.61,46.13-75.9,78.14-162.92,145.87-223.37q.81-8.6.77-17.22.54-20.68.64-41.36c.5-47.13.61-94.28.59-141.42s-.05-94.28-.59-141.42l-.41-31.27a270.41,270.41,0,0,0-1-27.31Z"/></svg>