<svg id="레이어_1" data-name="레이어 1" xmlns="http://www.w3.org/2000/svg" viewBox="0 0 2400 3600"><path d="M520.13,856.1c93.75-10,188.06-13.47,282.31-12.67,94.94.8,189.8,5.81,284.51,12.33,94.52,6.51,188.93,14.53,283.42,21.48,94.3,6.94,188.71,12.82,283.25,15,94.7,2.18,189.56.64,284-7.28q17.37-1.46,34.73-3.2c1.5-.15,1.51-67.55,1.41-58.58.51-47.14.61-94.29.59-141.42s0-94.29-.59-141.42c-.06-5.75-1.07-58.62-1.41-58.58-93.84,9.39-188.2,12.31-282.47,11.13-95-1.2-189.85-6.47-284.59-13.13-94.51-6.65-188.93-14.69-283.43-21.53-94.27-6.83-188.66-12.48-283.17-14.3-94.67-1.82-189.5.21-283.83,8.74q-17.37,1.56-34.71,3.43c-1.53.17-1.51,67.53-1.41,58.58-.51,47.14-.61,94.29-.59,141.42s0,94.29.59,141.42c.06,5.75,1.13,58.61,1.41,58.58Z"/><path d="M477.83,2074.67H2035.17c2.94,0,3-400,0-400H477.83c-2.94,0-3.05,400,0,400Z"/><path d="M2119.72,2801.37c-233.27-25.1-468.36-18.57-702.55-21.29q-350.83-4.08-701.23-24.18Q517.57,2744.52,319.53,2728c.05,0-2,185-2,200,0,47.14.05,94.28.59,141.42.07,5.89-.42,58.42,1.41,58.58q351.44,29.25,704,42.44,175.3,6.54,350.73,9.07c116.73,1.68,233.47,1.26,350.2,2.41,132,1.31,264,5.32,395.31,19.44.63.07,1.51-67.88,1.41-58.58.5-47.13.61-94.28.59-141.42s0-94.28-.59-141.42c-.07-5.94.61-58.36-1.41-58.58Z"/></svg>