<svg id="레이어_1" data-name="레이어 1" xmlns="http://www.w3.org/2000/svg" viewBox="0 0 2400 3600"><defs><style>.cls-1{fill:blue;}</style></defs><path class="cls-1" d="M1599.45,3016.57c-146.63,26.45-297.08,4.51-433.95-52.69-139.3-58.21-263.69-150.17-366.23-260.45C689.16,2585,607.72,2444.58,547.62,2295c-63.9-159.1-103.53-326.87-131.57-495.68-29-174.65-47.46-351.38-63.22-527.67q-3.13-35-5.78-70l.53,7.14q-5.16-70-7.46-140.21c-.59-18.8.26,17.4,0-1.39-.07-3.59-.13-7.19-.18-10.78l.28,20.51q1,119.9,0,239.8-.47,32.11-.2,17.83.17-8.74-.19,6.73.14-5.37.31-10.74,1.1-34.86,3.6-69.65l-.53,7.15c4.34-58,11.73-115.68,23.39-172.64,10.77-52.64,24.83-105.14,48.21-153.72,41.13-85.45,112.62-149.2,194.35-195.09,85.66-48.08,181.16-79.74,276.33-102.81,101.89-24.7,208-37.42,312.71-26.54,101,10.51,197.21,45,280.31,103.65,79.32,56,145,129.18,202.29,207.08,118.53,161.26,211.71,342.81,281.65,530a2395.2,2395.2,0,0,1,137.72,585.23q3.93,37.18,6.71,74.46l-.53-7.14q2.73,37.27,4.38,74.63c.53,12.45.94,24.9,1.31,37.35.31,10.5-.13-3-.14-6.15,0,3.12.12,6.23.18,9.34.31,15.67-.2-17.39-.2-17.26l0,4.68q-.49-49.43-.33-98.85c0-40.58-.12-81.14.19-121.72q.06-13.26.26-26.53.25-17.61.11-8.63c0,3.11-.1,6.23-.16,9.34-.05,2.57-.29,13.91,0,1.6s0-1-.07,1.59q-.14,4.67-.29,9.34-.32,9.33-.69,18.67-1.59,38.49-4.43,76.93l.53-7.15a2310,2310,0,0,1-33.65,256.89c-17,90-37.19,181.16-72.2,266-63,152.65-185.35,266.38-323.59,351.83-77.43,47.85-159.53,87.63-242.86,124.05-2.8,1.22-1.49,65.94-1.41,58.58-.5,47.13-.61,94.28-.59,141.42s0,94.28.59,141.42c.07,6.43,3.62,57.61,1.41,58.58,208-90.9,427.26-210.13,538.88-417.45,33.2-61.67,54.56-128.79,71.65-196.48q23.17-91.83,38.24-185.48c24.52-150.79,30.65-302.2,31.6-454.75,1.33-213,5.35-427.18-23.34-638.73a2401.55,2401.55,0,0,0-79.45-367.32c-71.47-238.22-179.86-469.34-326.16-671-70.61-97.32-154.61-188.41-260.44-247.79-113.34-63.6-244.67-81.66-372.9-71.32-126,10.15-252.94,43.72-369,93.71-107.79,46.43-210,115.93-264.67,223-30.48,59.69-46.39,126-58.16,191.57-12.73,71-19.28,143-21.77,215-3.7,107-2.8,214.25-2.48,321.27.23,76.18.34,152.46,3.52,228.59,3.08,73.48,9,146.83,16,220,25.12,263.64,52.52,530.16,124,786C547.09,2734,655.88,2963.37,834,3139.21c160.65,158.61,373.46,276.53,602.34,287.94a716.88,716.88,0,0,0,163.13-10.58c1.83-.33,1.5-67.28,1.41-58.58.5-47.13.61-94.28.59-141.42s0-94.28-.59-141.42c-.06-5.81-1.72-58.52-1.41-58.58Z"/></svg>