<svg id="레이어_1" data-name="레이어 1" xmlns="http://www.w3.org/2000/svg" viewBox="0 0 2400 3600"><path d="M321.55,1117.39c12.95-50.38,42.6-95.05,80.29-130.42,40.84-38.31,90.91-65.35,143-85A666.53,666.53,0,0,1,629,876.35c30-7,61.36-10.89,92-5.84,50.66,8.34,92.49,40.77,127.27,76.8C866.3,966,882.89,986,899.41,1006l62.08,75.26,14.91,18.06q.81-8.6.77-17.23.54-20.67.64-41.35c.5-47.13.61-94.28.59-141.42s0-94.29-.59-141.42l-.41-31.28a270.32,270.32,0,0,0-1-27.3q-31-37.64-62.09-75.26c-17.52-21.23-34.8-42.7-53.29-63.1-33.46-36.94-72.65-72.3-121.61-86.32-28.8-8.24-59-7.7-88.32-2.77S592.65,485.41,564.4,495c-53.29,18.12-105.09,43.11-148.46,79.45-39.57,33.15-72.21,75.85-89,125q-3,8.87-5.35,17.94a168,168,0,0,0-.77,17.23q-.55,20.67-.65,41.35c-.5,47.14-.6,94.29-.58,141.42s0,94.29.58,141.42l.41,31.28a267.43,267.43,0,0,0,1,27.3Z"/><path d="M1506.75,1110.58c13.49-47.44,42.67-88.58,78-122.44A441.4,441.4,0,0,1,1710,903.79c46.14-20.52,97.12-32.85,147.82-28.82a219.13,219.13,0,0,1,72.81,18.5c25.23,11.38,48.13,27.23,70,44.08,20,15.43,40.29,31.1,58.4,48.79,16.69,16.31,32.05,35.44,38.44,58.28a85.32,85.32,0,0,1,2.88,16.47l-.53-7.14c0,.6.08,1.2.11,1.8q.39,12.49.79,3.57a234.87,234.87,0,0,0,.75-23.74c.77-39.82.82-79.69.92-119.52.12-51.37.14-102.74-.21-154.11l-.31-40.48q-.17-25.72-.88-51.44c-.77-14.08-3-27.23-9-40.06a131.72,131.72,0,0,0-19.11-28.88c-16-18.9-35.58-34.4-54.84-49.84-21.46-17.19-43.33-34.09-67.34-47.61a224.47,224.47,0,0,0-73-26.24c-50.33-8.44-102.17.63-149.38,18.83-47.4,18.26-91.4,45.76-129.61,79.13-36.92,32.23-69,71.61-86.25,117.9q-3.18,8.55-5.67,17.32a170.84,170.84,0,0,0-.77,17.23q-.54,20.67-.64,41.35c-.51,47.14-.61,94.29-.59,141.42s0,94.29.59,141.43l.4,31.27a270.22,270.22,0,0,0,1,27.3Z"/><path d="M1087.8,1363.71,956.59,1498.13,825.37,1632.55l-65.61,67.21c-2.61,2.67-5.25,5.33-7.84,8-2.21,2.32-4.56,5-5.49,8.1a14.51,14.51,0,0,0-.34,1.56c-1.28,7.12-1,24.35-1.07,28.1-1.46,75.25-1.13,150.6-.92,225.86.12,39.84.15,79.7.92,119.53.05,2.37.09,14.15.5,21,.2,3.34-.21,8,2,11,1.56,2.14,4,3.47,6.33,4.59,3.38,1.62,6.84,3.07,10.26,4.6l21.72,9.7,171.8,76.72,171.81,76.72,20.73,9.25a170.64,170.64,0,0,0,.77-17.22q.54-20.67.64-41.35c.51-47.14.61-94.29.59-141.43s0-94.28-.59-141.42l-.4-31.27a270.52,270.52,0,0,0-1-27.31l-160.94-71.86-160.94-71.87-45.42-20.28-22.71-10.14c-5.28-2.36-13.19-4.59-14.11-11.29l.53,7.14,0-.79L746,2118.24c.52-7,7.71-12.32,12.22-16.94l16.59-17,33.94-34.77L876.65,1980l135-138.28,76.16-78a167.89,167.89,0,0,0,.77-17.22q.54-20.68.65-41.36c.5-47.13.6-94.28.58-141.42s0-94.28-.58-141.42l-.41-31.27a270.41,270.41,0,0,0-1-27.31Z"/><path d="M451.86,2917c69.79,107.58,166.41,196.4,277.44,260.2,120.72,69.36,257.39,107.59,396.19,115.43a1006.26,1006.26,0,0,0,419.08-66.22c121.06-47,233.53-119.36,319.81-217.12,92.83-105.18,150.27-236,190.25-369.21q7.44-24.81,14.16-49.84a167.64,167.64,0,0,0,.77-17.22q.55-20.67.65-41.35c.5-47.14.61-94.29.58-141.43s0-94.28-.58-141.42l-.41-31.27a267.62,267.62,0,0,0-1-27.31c-36.56,135.33-87.71,269.66-173.74,381.78-79.49,103.6-187.38,182.54-306,235.8-127.89,57.41-268.81,86.46-408.89,86.36-141.83-.1-283.67-31.08-410.48-95.21-113.79-57.54-215.15-140.58-291-243.3q-14-18.91-26.76-38.67a170.51,170.51,0,0,0-.77,17.22q-.54,20.67-.64,41.35c-.51,47.14-.61,94.29-.59,141.43s0,94.28.59,141.42l.4,31.27a270.52,270.52,0,0,0,1,27.31Z"/></svg>