<svg id="레이어_1" data-name="레이어 1" xmlns="http://www.w3.org/2000/svg" viewBox="0 0 2400 3600"><path d="M1204,639.25a1174.36,1174.36,0,0,1,237.38,24.16A1160.27,1160.27,0,0,1,1662,732.62,1180.55,1180.55,0,0,1,1861.68,842a1213.49,1213.49,0,0,1,174.74,144.79l14.14,14.14,14.14-14.14L2384,667.53v983.13H1400.88L1851,1200.58l14.15-14.14L1851,1172.3C1675.48,996.82,1445.72,900.19,1204,900.19c-506.77,0-919.06,412.08-919.06,918.59,0,506.77,412.29,919.06,919.06,919.06,384.82,0,728.86-239.58,860.63-597.65h273.78a1187.14,1187.14,0,0,1-743,792.17A1170,1170,0,0,1,1204,2999.25a1191.34,1191.34,0,0,1-238-23.95,1173.47,1173.47,0,0,1-422-177.42,1182,1182,0,0,1-427.37-519.09A1174.23,1174.23,0,0,1,48,2057.24a1194.42,1194.42,0,0,1,0-476,1173.47,1173.47,0,0,1,177.42-422A1182,1182,0,0,1,744.46,731.9,1174.46,1174.46,0,0,1,966,663.2a1191.34,1191.34,0,0,1,238-24m1200-20L2050.56,972.69c-218-218-515.15-353.44-846.56-353.44C540.72,619.25,4,1156,4,1819.25s536.72,1200,1200,1200c558.75,0,1025.63-383.91,1160.63-899.06H2050.56c-122.34,349.22-453.75,597.65-846.56,597.65-497.34,0-899.06-401.25-899.06-899.06S706.66,920.19,1204,920.19c248.91,0,471.09,104.53,632.81,266.25l-484.22,484.22H2404V619.25Z"/></svg>