<svg id="레이어_1" data-name="레이어 1" xmlns="http://www.w3.org/2000/svg" viewBox="0 0 2400 3600"><path d="M2399,2880.65c-112.95,150.6-220.52,263.54-430.28,263.54-242,0-290.43-177.48-290.43-365.73-225.89,209.76-484.07,365.73-919.72,365.73C236.86,3144.19.21,2869.89.21,2520.3c0-478.69,559.36-844.42,1678.08-1016.53V1121.9c0-322.71-156-537.85-478.69-537.85-408.75,0-570.11,113-666.92,387.25-43,118.33-102.19,225.9-236.66,225.9-139.83,0-215.13-86.06-215.13-231.28C80.89,697,521.92,455,1226.5,455,1694.42,455,2001,702.38,2001,1170.31V2660.13c0,161.36,16.14,290.44,102.19,290.44,69.92,0,145.22-21.51,247.42-123.71ZM1678.29,1649c-720.72,80.68-1323.1,376.5-1323.1,860.56,0,242,182.87,419.52,505.57,419.52,392.63,0,591.64-91.44,817.53-306.57Z"/></svg>