<svg id="레이어_1" data-name="레이어 1" xmlns="http://www.w3.org/2000/svg" viewBox="0 0 2400 3600"><path d="M2362.12,3498.44c-256.81,14.54-368.26,24.23-620.22,48.45v-213.2c-106.61,130.83-324.65,266.5-688.06,266.5-688.06,0-1017.56-596-1017.56-1206.52S341.55,1177.45,1053.84,1177.45c387.64,0,562.07,130.83,697.74,266.5V523.31c0-164.74-82.37-218-382.78-218l-24.23-67.84L2042.31,0V3086.57c0,208.36,96.91,310.12,319.81,310.12Zm-610.54-1875.2c-130.82-179.29-285.88-281-600.83-281-562.08,0-794.66,523.31-794.66,1051.47,0,537.85,232.58,1041.78,794.66,1041.78,392.48,0,508.77-174.44,600.83-271.35Z"/></svg>