<svg id="레이어_1" data-name="레이어 1" xmlns="http://www.w3.org/2000/svg" viewBox="0 0 2400 3600"><path d="M-.9,3483.41v-115.8c208.44,0,305.71-69.48,305.71-268.65V611.62c0-176-97.27-217.7-282.55-217.7L-.9,329.07,582.72,116V2487.54l986.6-866.17c46.32-41.68,64.85-78.74,64.85-111.16,0-78.74-125.06-125.06-310.34-125.06v-115.8h926.39v115.8c-208.44,0-328.87,78.74-477.1,217.7L1189.5,2117,1963,3163.8c101.91,134.33,231.6,203.81,435.4,203.81v115.8H1365.51v-115.8c176,0,296.45-37.06,296.45-125.06,0-27.79-13.9-60.22-41.69-101.91l-616-856.9L582.72,2654.29V3099c0,199.17,92.64,268.65,310.34,268.65v115.8Z"/></svg>