<svg id="레이어_1" data-name="레이어 1" xmlns="http://www.w3.org/2000/svg" viewBox="0 0 2400 3600"><path d="M-.77,2955.41V2836.08c238.65,0,315-71.59,315-281.6V1160.8c0-195.69-52.5-253-300.69-253L-.77,831.47,600.61,645.32v420c210-176.6,482.07-415.25,873.44-415.25s606.16,253,606.16,677.76V2554.48c0,210,90.69,281.6,319.79,281.6v119.33H1478.83V2836.08c229.1,0,315-71.59,315-281.6V1313.53c0-267.28-90.69-453.43-410.47-453.43-310.24,0-548.88,143.19-782.76,353.2V2554.48c0,210,95.46,281.6,319.79,281.6v119.33Z"/></svg>