<svg id="레이어_1" data-name="레이어 1" xmlns="http://www.w3.org/2000/svg" viewBox="0 0 2400 3600"><path d="M749.16,1028.3a687.84,687.84,0,0,1-239.23,45.92c-25.42.33-52.4.75-76.37-8.92-21.85-8.82-39.1-26-54.94-42.92q-25.46-27.11-50.1-55C296,930.47,265,891.8,240.9,848.72c-25.54-45.7-40.41-95.46-47.34-147.25-7.06-52.78-7.53-106.38-8.42-159.54s-.41-107.22,12-159.28a300.57,300.57,0,0,1,54.27-114.54C300.58,204.43,373.53,160.83,451,140.9c82.74-21.29,169.2-12.81,248.74,17.86,83.68,32.28,157.49,88.13,216.57,155.1,31.71,35.95,61.05,75.77,81.09,119.48C1020.12,483,1023.31,538,1028.7,591.49l8.67,86.17c2.74,27.25,6,55.28,1.92,82.56-3.87,25.85-14.64,49.81-28,72.08a382,382,0,0,1-39,53.92A421.57,421.57,0,0,1,750.81,1020a391.08,391.08,0,0,1-62.76,9.39c-5.66.38-10.5,4.56-10.5,10.5,0,5.39,4.82,10.88,10.5,10.5,92.91-6.22,182.07-43.62,253-103.72a416.81,416.81,0,0,0,89.74-106c13.73-23.36,24.88-48.82,28.9-75.77,4.25-28.43,1.74-56.9-1.12-85.32q-4.47-44.54-9-89.05c-2.92-29-5.33-58.09-10-86.85-4.46-27.49-11.93-54-23.4-79.37-11-24.44-25.25-47.31-40.72-69.16-54.14-76.47-124.58-142.41-207-187.4-79.15-43.19-170.74-67.25-261.12-58.06-85.25,8.67-168.07,43.67-231.66,101.5-30.59,27.82-56.57,61.27-74.75,98.48-23.07,47.23-32.59,99.2-35.68,151.35-1.64,27.54-1.55,55.14-1.07,82.7.48,28,1,56.07,2.3,84.07,2.46,54.67,8.1,110,25.47,162.2,16.39,49.23,43.19,94,74.54,135.11s66,79.68,101.76,116.83c17.64,18.36,37.2,35.21,61.34,44.23,25.36,9.49,53.64,9.4,80.35,9.06a715.52,715.52,0,0,0,167.31-22.08,707.28,707.28,0,0,0,77.5-24.59c5.3-2,8.94-7.07,7.34-12.92-1.4-5.07-7.59-9.36-12.92-7.33Z"/><path d="M1875.58,1003.25c-56.72,4.71-113.54,9.38-170.49,9.75-54.64.35-110.94-2.27-164.19-15.46-12-3-23.72-6.92-34.18-13.64-9.7-6.22-17.73-14.94-24.73-24-14.84-19.27-27.88-40.21-40.48-61a948.62,948.62,0,0,1-67.32-133.54,973.84,973.84,0,0,1-69.08-288,935.77,935.77,0,0,1-.44-149.46c3.52-44.51,12.14-93.07,44.7-126.17,33.19-33.75,82.55-46.86,126.81-59,53.24-14.59,108.07-24.8,163.48-23.19,101.85,3,195.64,49.74,278.4,105.91,40.75,27.66,80.71,57.39,116,91.83s64.43,74.32,83.66,120.07c19.46,46.3,29.86,96,37.47,145.44,3.79,24.67,6.86,49.44,9.88,74.22,3.28,26.9,6.25,53.94,5.91,81.08-.33,26.51-4.29,52.6-14,77.38-9,23.2-22.37,44.87-36.27,65.43-25.82,38.2-57.3,73.18-93.91,101.33-36.09,27.74-77.32,48.92-121.67,59.62-44.92,10.83-92.68,11.15-137.35-1.11a232,232,0,0,1-61.62-26.94c-11.5-7.18-22,11-10.6,18.13,85.14,53.15,195.46,48.76,283.42,5,42.8-21.29,81.06-51.59,113.43-86.63A494.85,494.85,0,0,0,2137.26,894c15.06-22,28.73-45.05,38.8-69.76,21.5-52.73,16.94-110.25,10.25-165.46-6.26-51.63-12.55-103.52-24.88-154.12-12.23-50.16-31-99.31-60.73-141.8-29.53-42.19-67.52-77.35-108-108.85-81.37-63.34-172.5-121.89-274.23-145.19-54.87-12.57-110.77-12.67-166.25-4.12A732.79,732.79,0,0,0,1468.89,123c-24.73,6.83-49.41,14.19-73,24.24-22.5,9.57-44.07,22.13-61.33,39.68s-29,39.27-36.75,62.4c-7.91,23.66-11.48,48.63-13.66,73.4-2.21,25.05-3.13,50.24-3.17,75.38a990.85,990.85,0,0,0,107,447.6q17.22,34,37.1,66.55c13.33,21.81,27.15,43.72,43.08,63.74,8.31,10.44,17.93,19.92,29.35,26.93,11.13,6.82,23.71,11.3,36.31,14.52,27.29,7,55.71,10.54,83.72,13.13,57.79,5.36,116,3.85,173.82.16,28.11-1.79,56.2-4.11,84.27-6.44,5.66-.47,10.5-4.49,10.5-10.5,0-5.32-4.81-11-10.5-10.5Z"/><path d="M914.86,1356.91c-62.12,35.58-117.21,82.31-165.8,134.69-49.34,53.18-92.43,111.88-133,171.91s-78.83,122-118.74,182.62c-48.84,74.25-100.25,146.79-151.79,219.18-40.88,57.43-85.09,117.34-148.1,152a223,223,0,0,1-22.16,10.76c-5.24,2.16-9,7-7.34,12.91,1.36,5,7.64,9.51,12.92,7.34,69.15-28.54,118.93-85.4,162.43-144.24,24.8-33.56,48.61-67.88,72.63-102,25.77-36.6,51.33-73.35,76.32-110.49,42.26-62.79,82.09-127.15,123.8-190.3,39.58-59.94,81-118.92,128.27-173.09,46.54-53.3,98.87-101.92,158.85-139.79q11-6.95,22.3-13.4c11.73-6.72,1.16-24.87-10.6-18.13Z"/><path d="M1430.21,1349.81c12.31,31.54,29.63,60.48,48.52,88.46,19.9,29.48,40.54,58.48,60.87,87.67l125.94,180.79q62.63,89.93,125.26,179.83l126.12,181.06L2042.56,2248l15.7,22.55c3.24,4.64,9.2,6.79,14.37,3.76,4.6-2.69,7-9.69,3.76-14.36l-125.63-180.37L1825.12,1899.2l-124.73-179.07L1575,1540.1q-31-44.52-62-89c-19.06-27.37-38.09-55-52.85-85-3.52-7.16-6.77-14.44-9.67-21.87-2.06-5.28-7-9-12.92-7.33-5,1.38-9.41,7.6-7.33,12.91Z"/><path d="M540.24,2556.57c-52.2-5.48-105.21-4.45-156.81,5.68-47.8,9.39-94.36,27.14-134.89,54.39-37,24.89-69.33,57.07-92.49,95.33-26.22,43.33-37.8,92.89-39.14,143.24-1.33,49.74,5.63,100.12,15.84,148.72,9,42.71,21.84,84.6,39.74,124.45,17.46,38.87,40.28,75.62,69.41,106.86a296.82,296.82,0,0,0,111.15,74.87c46.27,17.73,96.51,23.95,145.84,23.72,47.61-.23,95.56-6,142.11-15.92,44.15-9.41,87.57-23.46,127.86-44,39.33-20,75.75-47,104.12-81,32.52-39,53.77-85.78,67.45-134.4a487.63,487.63,0,0,0-.09-262.21c-11.89-42.09-29.79-82.76-53.7-119.43a381.86,381.86,0,0,0-88-95.41c-33.46-25.53-71.52-44.93-111.48-58a384.38,384.38,0,0,0-123.94-19.21c-41.25.51-82.74,7.94-121.11,23.26a311.13,311.13,0,0,0-54.68,28.13c-4.75,3.1-6.73,9.31-3.77,14.37,2.76,4.72,9.6,6.88,14.37,3.77,33.77-22,69.68-35.87,109.58-43.25a275.82,275.82,0,0,1,27.93-3.85q14.94-1.36,30-1.45t30.07,1.07q7.66.6,15.3,1.5l3.39.42,1.7.22c-.49-.07-1.6-.23.6.09,2.44.36,4.89.72,7.33,1.12a370.53,370.53,0,0,1,113.62,37.75,340.8,340.8,0,0,1,95.27,73.72c27.69,30.5,50.19,66.07,67.18,104.37,3.86,8.7,7.61,18.19,11.09,27.95q5.41,15.21,9.72,30.79,4.23,15.32,7.41,30.89,1.56,7.65,2.86,15.35c.44,2.56.85,5.14,1.24,7.71.19,1.19.36,2.38.53,3.57.12.79.23,1.59.34,2.38,0,.2.25,1.83.11.78a473.9,473.9,0,0,1,4.11,63.66q0,16-1.13,31.92-.56,8.11-1.38,16.2-.41,3.9-.87,7.78c-.32,2.74-.61,5-.86,6.77-6.25,44.7-18.52,89.38-38.56,129.93-19.87,40.21-48.3,75.35-83.55,101.9-34.3,25.83-72.84,44.32-112.93,57.69a583.82,583.82,0,0,1-63.86,17.17c-21.36,4.52-43.12,8-63.82,10.39-47.32,5.48-96.32,7-143.14-.44-45.47-7.19-89.06-22.62-126.88-49.15a245.44,245.44,0,0,1-23.14-18.33c-7.57-6.71-14.78-13.82-21.64-21.25a318.81,318.81,0,0,1-36-47.22c-22.58-35.62-38.46-72.86-50.87-112.83a715.74,715.74,0,0,1-26.4-125.26c-6.25-51-7.8-103.78,6.56-153.61,11.77-40.87,34.79-77.66,64.83-107.89a311.42,311.42,0,0,1,105.66-69.49c46.79-18.67,96.94-27.3,147.17-28.46a580,580,0,0,1,73.73,3.19c5.65.6,10.5-5.25,10.5-10.5,0-6.17-4.84-9.9-10.5-10.5Z"/><path d="M2165.88,2551q-49.47,86.26-98.93,172.55c-31.83,55.53-64,110.8-102.31,162.21-38.05,51.11-79.94,99.32-120.8,148.17l-127.79,152.74L1587.75,3340l-15.58,18.63c-3.63,4.35-4.26,10.59,0,14.85,3.74,3.74,11.19,4.37,14.85,0l128.3-153.36,128.3-153.37c41.53-49.64,84-98.69,123.56-149.9,19.78-25.59,38.62-51.83,56.11-79,17.26-26.87,33.44-54.41,49.38-82.07q49.62-86.12,98.87-172.43L2184,2561.6c6.73-11.74-11.41-22.33-18.13-10.59Z"/></svg>