<svg id="레이어_1" data-name="레이어 1" xmlns="http://www.w3.org/2000/svg" viewBox="0 0 2400 3600"><defs><style>.cls-1{opacity:0.8;}.cls-2{fill:#177c55;}</style></defs><g class="cls-1"><rect class="cls-2" width="300" height="300"/><rect class="cls-2" x="300" width="300" height="300"/><rect class="cls-2" x="600" width="300" height="300"/><rect class="cls-2" x="900" width="300" height="300"/><rect class="cls-2" x="1200" width="300" height="300"/><rect class="cls-2" x="1500" width="300" height="300"/><rect class="cls-2" x="1800" width="300" height="300"/><rect class="cls-2" x="2100" width="300" height="300"/><rect class="cls-2" y="300" width="300" height="300"/><rect class="cls-2" x="300" y="300" width="300" height="300"/><rect class="cls-2" x="600" y="300" width="300" height="300"/><rect class="cls-2" x="900" y="300" width="300" height="300"/><rect class="cls-2" x="1200" y="300" width="300" height="300"/><rect class="cls-2" x="1500" y="300" width="300" height="300"/><rect class="cls-2" x="1800" y="300" width="300" height="300"/><rect class="cls-2" x="2100" y="300" width="300" height="300"/><rect class="cls-2" y="600" width="300" height="300"/><rect class="cls-2" x="300" y="600" width="300" height="300"/><rect class="cls-2" x="600" y="600" width="300" height="300"/><rect class="cls-2" x="900" y="600" width="300" height="300"/><rect class="cls-2" x="1200" y="600" width="300" height="300"/><rect class="cls-2" x="1500" y="600" width="300" height="300"/><rect class="cls-2" x="1800" y="600" width="300" height="300"/><rect class="cls-2" x="2100" y="600" width="300" height="300"/><rect class="cls-2" y="900" width="300" height="300"/><rect class="cls-2" x="300" y="900" width="300" height="300"/><rect class="cls-2" x="600" y="900" width="300" height="300"/><rect class="cls-2" x="900" y="900" width="300" height="300"/><rect class="cls-2" x="1200" y="900" width="300" height="300"/><rect class="cls-2" x="1500" y="900" width="300" height="300"/><rect class="cls-2" x="1800" y="900" width="300" height="300"/><rect class="cls-2" x="2100" y="900" width="300" height="300"/><rect class="cls-2" y="1200" width="300" height="300"/><rect class="cls-2" x="300" y="1200" width="300" height="300"/><rect class="cls-2" x="600" y="1200" width="300" height="300"/><rect class="cls-2" x="900" y="1200" width="300" height="300"/><rect class="cls-2" x="1200" y="1200" width="300" height="300"/><rect class="cls-2" x="1500" y="1200" width="300" height="300"/><rect class="cls-2" x="1800" y="1200" width="300" height="300"/><rect class="cls-2" x="2100" y="1200" width="300" height="300"/><rect class="cls-2" x="300" y="1500" width="300" height="300"/><rect class="cls-2" x="600" y="1500" width="300" height="300"/><rect class="cls-2" x="900" y="1500" width="300" height="300"/><rect class="cls-2" x="1200" y="1500" width="300" height="300"/><rect class="cls-2" x="1500" y="1500" width="300" height="300"/><rect class="cls-2" x="1800" y="1500" width="300" height="300"/><rect class="cls-2" x="2100" y="1500" width="300" height="300"/><rect class="cls-2" y="1500" width="300" height="300" rx="150"/></g></svg>