<svg id="레이어_1" data-name="레이어 1" xmlns="http://www.w3.org/2000/svg" viewBox="0 0 2400 3600"><defs><style>.cls-1{fill:#fff;}</style></defs><path class="cls-1" d="M65.55,70.08H105.4c30.42,0,36.7,25.9,36.7,43,0,19.35-7.66,47.26-37.45,47.26H65.55ZM84,144.75h18.35c15.34,0,20.49-15.46,20.49-30.29,0-26.65-12.69-28.79-20.74-28.79H84Z"/><path class="cls-1" d="M209.11,147.27c0,7.92,1.76,9.67,3.89,10.43v2.64H194a29.76,29.76,0,0,1-1.63-7.92c-4,4.15-9.68,9.68-21.62,9.68-10.06,0-20.37-5.66-20.37-19.49,0-13.07,8.3-19.73,19.49-21.36l15.84-2.39c2.76-.38,6.16-1.51,6.16-5.28,0-7.42-7-7.8-11.57-7.8-8.8,0-10.31,5.41-10.81,9.31h-17c2-20.49,16.22-23.38,29.92-23.38,9.43,0,26.65,2.89,26.65,19.35Zm-17.22-19.49c-1.76,1.39-4.66,2.52-11.95,3.65-6.53,1.13-11.94,2.76-11.94,10,0,6.16,4.78,8.05,8.17,8.05,7.8,0,15.72-5,15.72-13.2Z"/><path class="cls-1" d="M282.27,140.73c-4.65,16.09-18,21.37-29.42,21.37-18.85,0-33.31-9-33.31-36.58,0-8,2.77-33.81,32.06-33.81C264.8,91.71,283,98,283,128.54v3.14H237.14c.51,5,1.51,16.34,15.71,16.34,4.91,0,9.94-2.51,11.32-7.29Zm-17.35-20.49c-1-10.81-7.92-14.08-13.57-14.08-8.3,0-12.7,5.28-13.7,14.08Z"/><path class="cls-1" d="M325,133.31H289.94V117H325Z"/><path class="cls-1" d="M380.32,111.69H418v48.65H405.46L403.58,149c-4.78,5.53-11.69,13.7-28.16,13.7-21.75,0-41.48-15.59-41.48-47.27,0-24.51,13.57-47.76,43.87-47.76h.25c27.65,0,38.59,18,39.6,30.42H398.8c0-3.52-6.41-14.84-19.74-14.84s-25.89,9.31-25.89,32.43c0,24.64,13.45,31.05,26.27,31.05,4.15,0,18-1.63,21.87-19.86h-21Z"/><path class="cls-1" d="M494.72,160.34H477.87v-9.43h-.25c-4,7.17-11.06,11.19-20.36,11.19-13.2,0-22.76-7.54-22.76-24.64v-44h17.6V135c0,10.3,6,12.32,11.44,12.32,5.78,0,13.58-3.27,13.58-15.21V93.47h17.6Z"/><path class="cls-1" d="M529.29,160.34h-17.6V70.08h17.6Z"/><path class="cls-1" d="M602.7,160.34H583.85V70.08H602.7v36.71l34.44-36.71h24.39L624.7,107l39,53.3H639.41l-27.91-39.6-8.8,9Z"/><path class="cls-1" d="M723.5,147.27c0,7.92,1.76,9.67,3.9,10.43v2.64h-19a29,29,0,0,1-1.63-7.92c-4,4.15-9.68,9.68-21.62,9.68-10.06,0-20.37-5.66-20.37-19.49,0-13.07,8.3-19.73,19.49-21.36l15.83-2.39c2.77-.38,6.16-1.51,6.16-5.28,0-7.42-7-7.8-11.56-7.8-8.8,0-10.31,5.41-10.81,9.31h-17c2-20.49,16.21-23.38,29.91-23.38,9.43,0,26.65,2.89,26.65,19.35Zm-17.22-19.49c-1.76,1.39-4.65,2.52-11.94,3.65-6.54,1.13-11.94,2.76-11.94,10,0,6.16,4.78,8.05,8.17,8.05,7.79,0,15.71-5,15.71-13.2Z"/><path class="cls-1" d="M799.68,160.34h-17.6v-40.6c0-4.91-.25-13.2-11.43-13.2-7.8,0-13.83,5.28-13.83,15.46v38.34h-17.6V93.47h16.84v9.8h.26c2.38-4,7.41-11.56,20.11-11.56,13.07,0,23.25,7.66,23.25,22.37Z"/><path class="cls-1" d="M877.37,93.47v63.35c0,11.56-.88,30.8-33.81,30.8-13.83,0-28.41-5.91-29.17-20.12H833.5c.75,3.4,2.14,6.79,12.32,6.79,9.43,0,13.95-4.52,13.95-15.33v-8.05l-.25-.25c-2.89,5.15-7.29,10.06-17.85,10.06-16.09,0-28.79-11.19-28.79-34.57,0-23.13,13.08-34.44,27.79-34.44,12.44,0,17.47,7.29,19.6,11.69h.26V93.47Zm-32.43,52.41c11.94,0,15-10.18,15-19.36,0-10.81-5.28-19.6-15.09-19.6-6.53,0-13.82,4.77-13.82,20.36C831,135.83,834.51,145.88,844.94,145.88Z"/></svg>