<svg id="레이어_1" data-name="레이어 1" xmlns="http://www.w3.org/2000/svg" viewBox="0 0 2400 3600"><defs><style>.cls-1{fill:#fff;}</style></defs><path class="cls-1" d="M66.92,2195.28v-39.85c0-30.42,25.89-36.7,43-36.7,19.35,0,47.26,7.67,47.26,37.46v39.09Zm74.66-18.48v-18.35c0-15.34-15.46-20.49-30.29-20.49-26.65,0-28.79,12.7-28.79,20.74v18.1Z"/><path class="cls-1" d="M144.1,2051.73c7.92,0,9.68-1.76,10.43-3.9h2.64v19a29.37,29.37,0,0,1-7.92,1.63c4.15,4,9.68,9.68,9.68,21.62,0,10.06-5.66,20.37-19.48,20.37-13.08,0-19.74-8.3-21.37-19.49l-2.39-15.83c-.38-2.77-1.51-6.16-5.28-6.16-7.42,0-7.79,7-7.79,11.56,0,8.8,5.4,10.31,9.3,10.81v17c-20.49-2-23.38-16.21-23.38-29.92,0-9.42,2.89-26.64,19.35-26.64ZM124.61,2069c1.39,1.76,2.52,4.65,3.65,11.94,1.13,6.53,2.76,11.94,10.05,11.94,6.16,0,8.05-4.78,8.05-8.17,0-7.79-5-15.71-13.2-15.71Z"/><path class="cls-1" d="M137.56,1978.56c16.09,4.65,21.37,18,21.37,29.42,0,18.85-9.05,33.31-36.58,33.31-8,0-33.81-2.77-33.81-32.06,0-13.19,6.28-31.42,36.83-31.42h3.14v45.88c5-.5,16.34-1.51,16.34-15.71,0-4.91-2.51-9.93-7.29-11.32Zm-20.49,17.35c-10.81,1-14.08,7.92-14.08,13.58,0,8.29,5.28,12.69,14.08,13.7Z"/><path class="cls-1" d="M130.14,1935.82v35.07H113.8v-35.07Z"/><path class="cls-1" d="M108.52,1880.51V1842.8h48.65v12.57l-11.31,1.89c5.53,4.77,13.7,11.69,13.7,28.15,0,21.75-15.59,41.48-47.27,41.48-24.51,0-47.76-13.57-47.76-43.87v-.25c0-27.65,18-38.59,30.42-39.59V1862c-3.52,0-14.84,6.41-14.84,19.74s9.31,25.89,32.44,25.89c24.63,0,31-13.45,31-26.27,0-4.15-1.63-18-19.86-21.87v21Z"/><path class="cls-1" d="M157.17,1766.12V1783h-9.43v.25c7.17,4,11.19,11.06,11.19,20.37,0,13.19-7.54,22.75-24.64,22.75h-44v-17.6h41.48c10.31,0,12.32-6,12.32-11.44,0-5.78-3.27-13.58-15.21-13.58H90.3v-17.59Z"/><path class="cls-1" d="M157.17,1731.55v17.59H66.92v-17.59Z"/><path class="cls-1" d="M157.17,1658.13V1677H66.92v-18.86h36.7l-36.7-34.44V1599.3l37,36.83,53.3-39v24.26l-39.6,27.9,9.05,8.8Z"/><path class="cls-1" d="M144.1,1537.33c7.92,0,9.68-1.76,10.43-3.9h2.64v19a29.36,29.36,0,0,1-7.92,1.64c4.15,4,9.68,9.68,9.68,21.62,0,10-5.66,20.36-19.48,20.36-13.08,0-19.74-8.3-21.37-19.48l-2.39-15.84c-.38-2.77-1.51-6.16-5.28-6.16-7.42,0-7.79,7-7.79,11.56,0,8.8,5.4,10.31,9.3,10.81v17c-20.49-2-23.38-16.21-23.38-29.91,0-9.43,2.89-26.65,19.35-26.65Zm-19.49,17.22c1.39,1.76,2.52,4.65,3.65,11.94,1.13,6.54,2.76,11.94,10.05,11.94,6.16,0,8.05-4.77,8.05-8.17,0-7.79-5-15.71-13.2-15.71Z"/><path class="cls-1" d="M157.17,1461.15v17.6h-40.6c-4.9,0-13.2.25-13.2,11.44,0,7.79,5.28,13.82,15.46,13.82h38.34v17.6H90.3v-16.84h9.8v-.25c-4-2.39-11.56-7.42-11.56-20.12,0-13.07,7.66-23.25,22.37-23.25Z"/><path class="cls-1" d="M90.3,1383.46h63.35c11.57,0,30.8.88,30.8,33.82,0,13.82-5.91,28.4-20.11,29.16v-19.11c3.39-.75,6.78-2.14,6.78-12.32,0-9.42-4.52-14-15.33-14h-8l-.25.25c5.15,2.89,10.06,7.29,10.06,17.85,0,16.09-11.19,28.79-34.57,28.79-23.13,0-34.44-13.08-34.44-27.78,0-12.45,7.29-17.48,11.69-19.61v-.25H90.3Zm52.41,32.43c0-11.94-10.18-15-19.35-15-10.81,0-19.61,5.28-19.61,15.09,0,6.54,4.77,13.83,20.36,13.83C132.66,1429.85,142.71,1426.33,142.71,1415.89Z"/></svg>