<svg xmlns="http://www.w3.org/2000/svg" viewBox="0 0 58.57 87.32"><defs><style>.cls-1{fill:#fff;}</style></defs><g id="레이어_2" data-name="레이어 2"><g id="레이어_1-2" data-name="레이어 1"><path class="cls-1" d="M22.28,35.81h2.63c5,0,14.26-.47,14.26-11.49,0-3.12-1.44-10.9-10.66-10.9C17,13.42,17,24.32,17,27.31H1.44C1.44,11.38,10.42,0,29.59,0,41,0,55.94,5.75,55.94,23.72A17.46,17.46,0,0,1,45.76,39.89v.24c3,.84,12.81,5.27,12.81,19.76,0,16-11.86,27.43-29,27.43-8,0-29.59-1.8-29.59-28.39H16.41l-.12.12c0,4.55,1.2,14.86,12.46,14.86,6.71,0,12.57-4.56,12.57-14,0-11.62-11.26-12.1-19-12.1Z"/></g></g></svg>