<svg xmlns="http://www.w3.org/2000/svg" viewBox="0 0 58.57 87.32"><defs><style>.cls-1{fill:#fff;}</style></defs><g id="레이어_2" data-name="레이어 2"><g id="레이어_1-2" data-name="레이어 1"><path class="cls-1" d="M40.25,21.56c-.48-4.79-3.6-8.14-9.83-8.14-10.9,0-13.41,12.45-14,23.47l.24.24c2.28-3.11,6.47-7.06,15.93-7.06,17.61,0,26,13.53,26,26.23,0,18.56-11.38,31-27.79,31C5,87.32,0,65.76,0,44.56,0,28.39,2.16,0,31.62,0,35.1,0,44.8,1.32,49,5.51c4.67,4.55,6.35,7.07,7.91,16ZM29.59,43.48c-6.35,0-12.82,4-12.82,14.61,0,9.23,5.27,15.82,13.3,15.82,6.1,0,11.73-4.68,11.73-16.18C41.8,47,34.86,43.48,29.59,43.48Z"/></g></g></svg>