<svg xmlns="http://www.w3.org/2000/svg" viewBox="0 0 300 300"><defs><style>.cls-1{fill:#fff;}</style></defs><g id="레이어_2" data-name="레이어 2"><g id="레이어_1-2" data-name="레이어 1"><rect class="cls-1" x="0.5" y="0.5" width="149" height="149"/><path d="M149,1V149H1V1H149m1-1H0V150H150V0Z"/><circle class="cls-1" cx="225" cy="75" r="74.5"/><path d="M225,1a74,74,0,1,1-74,74A74.09,74.09,0,0,1,225,1m0-1a75,75,0,1,0,75,75A75,75,0,0,0,225,0Z"/><circle class="cls-1" cx="225" cy="225" r="74.5"/><path d="M225,151a74,74,0,1,1-74,74,74.09,74.09,0,0,1,74-74m0-1a75,75,0,1,0,75,75,75,75,0,0,0-75-75Z"/><circle class="cls-1" cx="75" cy="225" r="74.5"/><path d="M75,151A74,74,0,1,1,1,225a74.09,74.09,0,0,1,74-74m0-1a75,75,0,1,0,75,75,75,75,0,0,0-75-75Z"/></g></g></svg>